<svg xmlns="http://www.w3.org/2000/svg" viewBox="0 0 1080 120" role="img" aria-label="OpenFinClaw">
  <title>OpenFinClaw</title>
  <rect x="84" y="0" width="12" height="20" fill="#fde68a" opacity="0.35"/>
  <rect x="180" y="0" width="12" height="20" fill="#fde68a" opacity="0.35"/>
  <rect x="288" y="0" width="12" height="20" fill="#fde68a" opacity="0.35"/>
  <rect x="336" y="0" width="12" height="20" fill="#fde68a" opacity="0.35"/>
  <rect x="408" y="0" width="12" height="20" fill="#fde68a" opacity="0.35"/>
  <rect x="504" y="0" width="12" height="20" fill="#fde68a" opacity="0.35"/>
  <rect x="540" y="0" width="12" height="20" fill="#fde68a" opacity="0.35"/>
  <rect x="588" y="0" width="12" height="20" fill="#fde68a" opacity="0.35"/>
  <rect x="660" y="0" width="12" height="20" fill="#fde68a" opacity="0.35"/>
  <rect x="756" y="0" width="12" height="20" fill="#fde68a" opacity="0.35"/>
  <rect x="792" y="0" width="12" height="20" fill="#fde68a" opacity="0.35"/>
  <rect x="936" y="0" width="12" height="20" fill="#fde68a" opacity="0.35"/>
  <rect x="984" y="0" width="12" height="20" fill="#fde68a" opacity="0.35"/>
  <rect x="1068" y="0" width="12" height="20" fill="#fde68a" opacity="0.35"/>
  <rect x="24" y="20" width="12" height="20" fill="#fcd34d" opacity="0.35"/>
  <rect x="36" y="20" width="12" height="20" fill="#fcd34d" opacity="0.35"/>
  <rect x="48" y="20" width="12" height="20" fill="#fcd34d" opacity="0.35"/>
  <rect x="60" y="20" width="12" height="20" fill="#fcd34d" opacity="0.35"/>
  <rect x="96" y="20" width="12" height="20" fill="#fcd34d" opacity="0.35"/>
  <rect x="132" y="20" width="12" height="20" fill="#fcd34d" opacity="0.35"/>
  <rect x="144" y="20" width="12" height="20" fill="#fcd34d" opacity="0.35"/>
  <rect x="156" y="20" width="12" height="20" fill="#fcd34d" opacity="0.35"/>
  <rect x="192" y="20" width="12" height="20" fill="#fcd34d" opacity="0.35"/>
  <rect x="228" y="20" width="12" height="20" fill="#fcd34d" opacity="0.35"/>
  <rect x="240" y="20" width="12" height="20" fill="#fcd34d" opacity="0.35"/>
  <rect x="252" y="20" width="12" height="20" fill="#fcd34d" opacity="0.35"/>
  <rect x="264" y="20" width="12" height="20" fill="#fcd34d" opacity="0.35"/>
  <rect x="276" y="20" width="12" height="20" fill="#fcd34d" opacity="0.35"/>
  <rect x="288" y="20" width="12" height="20" fill="#fcd34d" opacity="0.35"/>
  <rect x="348" y="20" width="12" height="20" fill="#fcd34d" opacity="0.35"/>
  <rect x="408" y="20" width="12" height="20" fill="#fcd34d" opacity="0.35"/>
  <rect x="444" y="20" width="12" height="20" fill="#fcd34d" opacity="0.35"/>
  <rect x="456" y="20" width="12" height="20" fill="#fcd34d" opacity="0.35"/>
  <rect x="468" y="20" width="12" height="20" fill="#fcd34d" opacity="0.35"/>
  <rect x="480" y="20" width="12" height="20" fill="#fcd34d" opacity="0.35"/>
  <rect x="492" y="20" width="12" height="20" fill="#fcd34d" opacity="0.35"/>
  <rect x="504" y="20" width="12" height="20" fill="#fcd34d" opacity="0.35"/>
  <rect x="540" y="20" width="12" height="20" fill="#fcd34d" opacity="0.35"/>
  <rect x="600" y="20" width="12" height="20" fill="#fcd34d" opacity="0.35"/>
  <rect x="660" y="20" width="12" height="20" fill="#fcd34d" opacity="0.35"/>
  <rect x="696" y="20" width="12" height="20" fill="#fcd34d" opacity="0.35"/>
  <rect x="708" y="20" width="12" height="20" fill="#fcd34d" opacity="0.35"/>
  <rect x="720" y="20" width="12" height="20" fill="#fcd34d" opacity="0.35"/>
  <rect x="732" y="20" width="12" height="20" fill="#fcd34d" opacity="0.35"/>
  <rect x="744" y="20" width="12" height="20" fill="#fcd34d" opacity="0.35"/>
  <rect x="756" y="20" width="12" height="20" fill="#fcd34d" opacity="0.35"/>
  <rect x="792" y="20" width="12" height="20" fill="#fcd34d" opacity="0.35"/>
  <rect x="888" y="20" width="12" height="20" fill="#fcd34d" opacity="0.35"/>
  <rect x="900" y="20" width="12" height="20" fill="#fcd34d" opacity="0.35"/>
  <rect x="912" y="20" width="12" height="20" fill="#fcd34d" opacity="0.35"/>
  <rect x="948" y="20" width="12" height="20" fill="#fcd34d" opacity="0.35"/>
  <rect x="984" y="20" width="12" height="20" fill="#fcd34d" opacity="0.35"/>
  <rect x="1068" y="20" width="12" height="20" fill="#fcd34d" opacity="0.35"/>
  <rect x="24" y="40" width="12" height="20" fill="#fbbf24" opacity="0.35"/>
  <rect x="96" y="40" width="12" height="20" fill="#fbbf24" opacity="0.35"/>
  <rect x="180" y="40" width="12" height="20" fill="#fbbf24" opacity="0.35"/>
  <rect x="192" y="40" width="12" height="20" fill="#fbbf24" opacity="0.35"/>
  <rect x="264" y="40" width="12" height="20" fill="#fbbf24" opacity="0.35"/>
  <rect x="324" y="40" width="12" height="20" fill="#fbbf24" opacity="0.35"/>
  <rect x="360" y="40" width="12" height="20" fill="#fbbf24" opacity="0.35"/>
  <rect x="408" y="40" width="12" height="20" fill="#fbbf24" opacity="0.35"/>
  <rect x="480" y="40" width="12" height="20" fill="#fbbf24" opacity="0.35"/>
  <rect x="540" y="40" width="12" height="20" fill="#fbbf24" opacity="0.35"/>
  <rect x="576" y="40" width="12" height="20" fill="#fbbf24" opacity="0.35"/>
  <rect x="612" y="40" width="12" height="20" fill="#fbbf24" opacity="0.35"/>
  <rect x="660" y="40" width="12" height="20" fill="#fbbf24" opacity="0.35"/>
  <rect x="696" y="40" width="12" height="20" fill="#fbbf24" opacity="0.35"/>
  <rect x="792" y="40" width="12" height="20" fill="#fbbf24" opacity="0.35"/>
  <rect x="948" y="40" width="12" height="20" fill="#fbbf24" opacity="0.35"/>
  <rect x="984" y="40" width="12" height="20" fill="#fbbf24" opacity="0.35"/>
  <rect x="1020" y="40" width="12" height="20" fill="#fbbf24" opacity="0.35"/>
  <rect x="1068" y="40" width="12" height="20" fill="#fbbf24" opacity="0.35"/>
  <rect x="24" y="60" width="12" height="20" fill="#f59e0b" opacity="0.35"/>
  <rect x="96" y="60" width="12" height="20" fill="#f59e0b" opacity="0.35"/>
  <rect x="132" y="60" width="12" height="20" fill="#f59e0b" opacity="0.35"/>
  <rect x="144" y="60" width="12" height="20" fill="#f59e0b" opacity="0.35"/>
  <rect x="156" y="60" width="12" height="20" fill="#f59e0b" opacity="0.35"/>
  <rect x="168" y="60" width="12" height="20" fill="#f59e0b" opacity="0.35"/>
  <rect x="180" y="60" width="12" height="20" fill="#f59e0b" opacity="0.35"/>
  <rect x="228" y="60" width="12" height="20" fill="#f59e0b" opacity="0.35"/>
  <rect x="240" y="60" width="12" height="20" fill="#f59e0b" opacity="0.35"/>
  <rect x="252" y="60" width="12" height="20" fill="#f59e0b" opacity="0.35"/>
  <rect x="264" y="60" width="12" height="20" fill="#f59e0b" opacity="0.35"/>
  <rect x="324" y="60" width="12" height="20" fill="#f59e0b" opacity="0.35"/>
  <rect x="336" y="60" width="12" height="20" fill="#f59e0b" opacity="0.35"/>
  <rect x="372" y="60" width="12" height="20" fill="#f59e0b" opacity="0.35"/>
  <rect x="408" y="60" width="12" height="20" fill="#f59e0b" opacity="0.35"/>
  <rect x="444" y="60" width="12" height="20" fill="#f59e0b" opacity="0.35"/>
  <rect x="456" y="60" width="12" height="20" fill="#f59e0b" opacity="0.35"/>
  <rect x="468" y="60" width="12" height="20" fill="#f59e0b" opacity="0.35"/>
  <rect x="480" y="60" width="12" height="20" fill="#f59e0b" opacity="0.35"/>
  <rect x="540" y="60" width="12" height="20" fill="#f59e0b" opacity="0.35"/>
  <rect x="576" y="60" width="12" height="20" fill="#f59e0b" opacity="0.35"/>
  <rect x="588" y="60" width="12" height="20" fill="#f59e0b" opacity="0.35"/>
  <rect x="624" y="60" width="12" height="20" fill="#f59e0b" opacity="0.35"/>
  <rect x="660" y="60" width="12" height="20" fill="#f59e0b" opacity="0.35"/>
  <rect x="696" y="60" width="12" height="20" fill="#f59e0b" opacity="0.35"/>
  <rect x="792" y="60" width="12" height="20" fill="#f59e0b" opacity="0.35"/>
  <rect x="888" y="60" width="12" height="20" fill="#f59e0b" opacity="0.35"/>
  <rect x="900" y="60" width="12" height="20" fill="#f59e0b" opacity="0.35"/>
  <rect x="912" y="60" width="12" height="20" fill="#f59e0b" opacity="0.35"/>
  <rect x="948" y="60" width="12" height="20" fill="#f59e0b" opacity="0.35"/>
  <rect x="984" y="60" width="12" height="20" fill="#f59e0b" opacity="0.35"/>
  <rect x="1032" y="60" width="12" height="20" fill="#f59e0b" opacity="0.35"/>
  <rect x="1068" y="60" width="12" height="20" fill="#f59e0b" opacity="0.35"/>
  <rect x="0" y="80" width="12" height="20" fill="#d97706" opacity="0.35"/>
  <rect x="84" y="80" width="12" height="20" fill="#d97706" opacity="0.35"/>
  <rect x="96" y="80" width="12" height="20" fill="#d97706" opacity="0.35"/>
  <rect x="132" y="80" width="12" height="20" fill="#d97706" opacity="0.35"/>
  <rect x="288" y="80" width="12" height="20" fill="#d97706" opacity="0.35"/>
  <rect x="324" y="80" width="12" height="20" fill="#d97706" opacity="0.35"/>
  <rect x="348" y="80" width="12" height="20" fill="#d97706" opacity="0.35"/>
  <rect x="408" y="80" width="12" height="20" fill="#d97706" opacity="0.35"/>
  <rect x="444" y="80" width="12" height="20" fill="#d97706" opacity="0.35"/>
  <rect x="540" y="80" width="12" height="20" fill="#d97706" opacity="0.35"/>
  <rect x="576" y="80" width="12" height="20" fill="#d97706" opacity="0.35"/>
  <rect x="600" y="80" width="12" height="20" fill="#d97706" opacity="0.35"/>
  <rect x="660" y="80" width="12" height="20" fill="#d97706" opacity="0.35"/>
  <rect x="672" y="80" width="12" height="20" fill="#d97706" opacity="0.35"/>
  <rect x="756" y="80" width="12" height="20" fill="#d97706" opacity="0.35"/>
  <rect x="852" y="80" width="12" height="20" fill="#d97706" opacity="0.35"/>
  <rect x="888" y="80" width="12" height="20" fill="#d97706" opacity="0.35"/>
  <rect x="948" y="80" width="12" height="20" fill="#d97706" opacity="0.35"/>
  <rect x="960" y="80" width="12" height="20" fill="#d97706" opacity="0.35"/>
  <rect x="1008" y="80" width="12" height="20" fill="#d97706" opacity="0.35"/>
  <rect x="1056" y="80" width="12" height="20" fill="#d97706" opacity="0.35"/>
  <rect x="1068" y="80" width="12" height="20" fill="#d97706" opacity="0.35"/>
  <rect x="12" y="100" width="12" height="20" fill="#92400e" opacity="0.35"/>
  <rect x="24" y="100" width="12" height="20" fill="#92400e" opacity="0.35"/>
  <rect x="36" y="100" width="12" height="20" fill="#92400e" opacity="0.35"/>
  <rect x="48" y="100" width="12" height="20" fill="#92400e" opacity="0.35"/>
  <rect x="60" y="100" width="12" height="20" fill="#92400e" opacity="0.35"/>
  <rect x="72" y="100" width="12" height="20" fill="#92400e" opacity="0.35"/>
  <rect x="84" y="100" width="12" height="20" fill="#92400e" opacity="0.35"/>
  <rect x="108" y="100" width="12" height="20" fill="#92400e" opacity="0.35"/>
  <rect x="120" y="100" width="12" height="20" fill="#92400e" opacity="0.35"/>
  <rect x="132" y="100" width="12" height="20" fill="#92400e" opacity="0.35"/>
  <rect x="204" y="100" width="12" height="20" fill="#92400e" opacity="0.35"/>
  <rect x="216" y="100" width="12" height="20" fill="#92400e" opacity="0.35"/>
  <rect x="228" y="100" width="12" height="20" fill="#92400e" opacity="0.35"/>
  <rect x="240" y="100" width="12" height="20" fill="#92400e" opacity="0.35"/>
  <rect x="252" y="100" width="12" height="20" fill="#92400e" opacity="0.35"/>
  <rect x="264" y="100" width="12" height="20" fill="#92400e" opacity="0.35"/>
  <rect x="276" y="100" width="12" height="20" fill="#92400e" opacity="0.35"/>
  <rect x="288" y="100" width="12" height="20" fill="#92400e" opacity="0.35"/>
  <rect x="300" y="100" width="12" height="20" fill="#92400e" opacity="0.35"/>
  <rect x="312" y="100" width="12" height="20" fill="#92400e" opacity="0.35"/>
  <rect x="324" y="100" width="12" height="20" fill="#92400e" opacity="0.35"/>
  <rect x="360" y="100" width="12" height="20" fill="#92400e" opacity="0.35"/>
  <rect x="372" y="100" width="12" height="20" fill="#92400e" opacity="0.35"/>
  <rect x="384" y="100" width="12" height="20" fill="#92400e" opacity="0.35"/>
  <rect x="396" y="100" width="12" height="20" fill="#92400e" opacity="0.35"/>
  <rect x="408" y="100" width="12" height="20" fill="#92400e" opacity="0.35"/>
  <rect x="420" y="100" width="12" height="20" fill="#92400e" opacity="0.35"/>
  <rect x="432" y="100" width="12" height="20" fill="#92400e" opacity="0.35"/>
  <rect x="444" y="100" width="12" height="20" fill="#92400e" opacity="0.35"/>
  <rect x="516" y="100" width="12" height="20" fill="#92400e" opacity="0.35"/>
  <rect x="528" y="100" width="12" height="20" fill="#92400e" opacity="0.35"/>
  <rect x="540" y="100" width="12" height="20" fill="#92400e" opacity="0.35"/>
  <rect x="552" y="100" width="12" height="20" fill="#92400e" opacity="0.35"/>
  <rect x="564" y="100" width="12" height="20" fill="#92400e" opacity="0.35"/>
  <rect x="576" y="100" width="12" height="20" fill="#92400e" opacity="0.35"/>
  <rect x="612" y="100" width="12" height="20" fill="#92400e" opacity="0.35"/>
  <rect x="624" y="100" width="12" height="20" fill="#92400e" opacity="0.35"/>
  <rect x="636" y="100" width="12" height="20" fill="#92400e" opacity="0.35"/>
  <rect x="648" y="100" width="12" height="20" fill="#92400e" opacity="0.35"/>
  <rect x="660" y="100" width="12" height="20" fill="#92400e" opacity="0.35"/>
  <rect x="684" y="100" width="12" height="20" fill="#92400e" opacity="0.35"/>
  <rect x="696" y="100" width="12" height="20" fill="#92400e" opacity="0.35"/>
  <rect x="708" y="100" width="12" height="20" fill="#92400e" opacity="0.35"/>
  <rect x="720" y="100" width="12" height="20" fill="#92400e" opacity="0.35"/>
  <rect x="732" y="100" width="12" height="20" fill="#92400e" opacity="0.35"/>
  <rect x="744" y="100" width="12" height="20" fill="#92400e" opacity="0.35"/>
  <rect x="756" y="100" width="12" height="20" fill="#92400e" opacity="0.35"/>
  <rect x="768" y="100" width="12" height="20" fill="#92400e" opacity="0.35"/>
  <rect x="780" y="100" width="12" height="20" fill="#92400e" opacity="0.35"/>
  <rect x="792" y="100" width="12" height="20" fill="#92400e" opacity="0.35"/>
  <rect x="804" y="100" width="12" height="20" fill="#92400e" opacity="0.35"/>
  <rect x="816" y="100" width="12" height="20" fill="#92400e" opacity="0.35"/>
  <rect x="828" y="100" width="12" height="20" fill="#92400e" opacity="0.35"/>
  <rect x="840" y="100" width="12" height="20" fill="#92400e" opacity="0.35"/>
  <rect x="852" y="100" width="12" height="20" fill="#92400e" opacity="0.35"/>
  <rect x="864" y="100" width="12" height="20" fill="#92400e" opacity="0.35"/>
  <rect x="876" y="100" width="12" height="20" fill="#92400e" opacity="0.35"/>
  <rect x="888" y="100" width="12" height="20" fill="#92400e" opacity="0.35"/>
  <rect x="924" y="100" width="12" height="20" fill="#92400e" opacity="0.35"/>
  <rect x="936" y="100" width="12" height="20" fill="#92400e" opacity="0.35"/>
  <rect x="948" y="100" width="12" height="20" fill="#92400e" opacity="0.35"/>
  <rect x="972" y="100" width="12" height="20" fill="#92400e" opacity="0.35"/>
  <rect x="984" y="100" width="12" height="20" fill="#92400e" opacity="0.35"/>
  <rect x="996" y="100" width="12" height="20" fill="#92400e" opacity="0.35"/>
  <rect x="1008" y="100" width="12" height="20" fill="#92400e" opacity="0.35"/>
  <rect x="1020" y="100" width="12" height="20" fill="#92400e" opacity="0.35"/>
  <rect x="1032" y="100" width="12" height="20" fill="#92400e" opacity="0.35"/>
  <rect x="1044" y="100" width="12" height="20" fill="#92400e" opacity="0.35"/>
  <rect x="1056" y="100" width="12" height="20" fill="#92400e" opacity="0.35"/>
  <rect x="12" y="0" width="12" height="20" fill="#fde68a"/>
  <rect x="24" y="0" width="12" height="20" fill="#fde68a"/>
  <rect x="36" y="0" width="12" height="20" fill="#fde68a"/>
  <rect x="48" y="0" width="12" height="20" fill="#fde68a"/>
  <rect x="60" y="0" width="12" height="20" fill="#fde68a"/>
  <rect x="72" y="0" width="12" height="20" fill="#fde68a"/>
  <rect x="108" y="0" width="12" height="20" fill="#fde68a"/>
  <rect x="120" y="0" width="12" height="20" fill="#fde68a"/>
  <rect x="132" y="0" width="12" height="20" fill="#fde68a"/>
  <rect x="144" y="0" width="12" height="20" fill="#fde68a"/>
  <rect x="156" y="0" width="12" height="20" fill="#fde68a"/>
  <rect x="168" y="0" width="12" height="20" fill="#fde68a"/>
  <rect x="204" y="0" width="12" height="20" fill="#fde68a"/>
  <rect x="216" y="0" width="12" height="20" fill="#fde68a"/>
  <rect x="228" y="0" width="12" height="20" fill="#fde68a"/>
  <rect x="240" y="0" width="12" height="20" fill="#fde68a"/>
  <rect x="252" y="0" width="12" height="20" fill="#fde68a"/>
  <rect x="264" y="0" width="12" height="20" fill="#fde68a"/>
  <rect x="276" y="0" width="12" height="20" fill="#fde68a"/>
  <rect x="300" y="0" width="12" height="20" fill="#fde68a"/>
  <rect x="312" y="0" width="12" height="20" fill="#fde68a"/>
  <rect x="324" y="0" width="12" height="20" fill="#fde68a"/>
  <rect x="384" y="0" width="12" height="20" fill="#fde68a"/>
  <rect x="396" y="0" width="12" height="20" fill="#fde68a"/>
  <rect x="420" y="0" width="12" height="20" fill="#fde68a"/>
  <rect x="432" y="0" width="12" height="20" fill="#fde68a"/>
  <rect x="444" y="0" width="12" height="20" fill="#fde68a"/>
  <rect x="456" y="0" width="12" height="20" fill="#fde68a"/>
  <rect x="468" y="0" width="12" height="20" fill="#fde68a"/>
  <rect x="480" y="0" width="12" height="20" fill="#fde68a"/>
  <rect x="492" y="0" width="12" height="20" fill="#fde68a"/>
  <rect x="516" y="0" width="12" height="20" fill="#fde68a"/>
  <rect x="528" y="0" width="12" height="20" fill="#fde68a"/>
  <rect x="552" y="0" width="12" height="20" fill="#fde68a"/>
  <rect x="564" y="0" width="12" height="20" fill="#fde68a"/>
  <rect x="576" y="0" width="12" height="20" fill="#fde68a"/>
  <rect x="636" y="0" width="12" height="20" fill="#fde68a"/>
  <rect x="648" y="0" width="12" height="20" fill="#fde68a"/>
  <rect x="684" y="0" width="12" height="20" fill="#fde68a"/>
  <rect x="696" y="0" width="12" height="20" fill="#fde68a"/>
  <rect x="708" y="0" width="12" height="20" fill="#fde68a"/>
  <rect x="720" y="0" width="12" height="20" fill="#fde68a"/>
  <rect x="732" y="0" width="12" height="20" fill="#fde68a"/>
  <rect x="744" y="0" width="12" height="20" fill="#fde68a"/>
  <rect x="768" y="0" width="12" height="20" fill="#fde68a"/>
  <rect x="780" y="0" width="12" height="20" fill="#fde68a"/>
  <rect x="876" y="0" width="12" height="20" fill="#fde68a"/>
  <rect x="888" y="0" width="12" height="20" fill="#fde68a"/>
  <rect x="900" y="0" width="12" height="20" fill="#fde68a"/>
  <rect x="912" y="0" width="12" height="20" fill="#fde68a"/>
  <rect x="924" y="0" width="12" height="20" fill="#fde68a"/>
  <rect x="960" y="0" width="12" height="20" fill="#fde68a"/>
  <rect x="972" y="0" width="12" height="20" fill="#fde68a"/>
  <rect x="1044" y="0" width="12" height="20" fill="#fde68a"/>
  <rect x="1056" y="0" width="12" height="20" fill="#fde68a"/>
  <rect x="0" y="20" width="12" height="20" fill="#fcd34d"/>
  <rect x="12" y="20" width="12" height="20" fill="#fcd34d"/>
  <rect x="72" y="20" width="12" height="20" fill="#fcd34d"/>
  <rect x="84" y="20" width="12" height="20" fill="#fcd34d"/>
  <rect x="108" y="20" width="12" height="20" fill="#fcd34d"/>
  <rect x="120" y="20" width="12" height="20" fill="#fcd34d"/>
  <rect x="168" y="20" width="12" height="20" fill="#fcd34d"/>
  <rect x="180" y="20" width="12" height="20" fill="#fcd34d"/>
  <rect x="204" y="20" width="12" height="20" fill="#fcd34d"/>
  <rect x="216" y="20" width="12" height="20" fill="#fcd34d"/>
  <rect x="300" y="20" width="12" height="20" fill="#fcd34d"/>
  <rect x="312" y="20" width="12" height="20" fill="#fcd34d"/>
  <rect x="324" y="20" width="12" height="20" fill="#fcd34d"/>
  <rect x="336" y="20" width="12" height="20" fill="#fcd34d"/>
  <rect x="384" y="20" width="12" height="20" fill="#fcd34d"/>
  <rect x="396" y="20" width="12" height="20" fill="#fcd34d"/>
  <rect x="420" y="20" width="12" height="20" fill="#fcd34d"/>
  <rect x="432" y="20" width="12" height="20" fill="#fcd34d"/>
  <rect x="516" y="20" width="12" height="20" fill="#fcd34d"/>
  <rect x="528" y="20" width="12" height="20" fill="#fcd34d"/>
  <rect x="552" y="20" width="12" height="20" fill="#fcd34d"/>
  <rect x="564" y="20" width="12" height="20" fill="#fcd34d"/>
  <rect x="576" y="20" width="12" height="20" fill="#fcd34d"/>
  <rect x="588" y="20" width="12" height="20" fill="#fcd34d"/>
  <rect x="636" y="20" width="12" height="20" fill="#fcd34d"/>
  <rect x="648" y="20" width="12" height="20" fill="#fcd34d"/>
  <rect x="672" y="20" width="12" height="20" fill="#fcd34d"/>
  <rect x="684" y="20" width="12" height="20" fill="#fcd34d"/>
  <rect x="768" y="20" width="12" height="20" fill="#fcd34d"/>
  <rect x="780" y="20" width="12" height="20" fill="#fcd34d"/>
  <rect x="864" y="20" width="12" height="20" fill="#fcd34d"/>
  <rect x="876" y="20" width="12" height="20" fill="#fcd34d"/>
  <rect x="924" y="20" width="12" height="20" fill="#fcd34d"/>
  <rect x="936" y="20" width="12" height="20" fill="#fcd34d"/>
  <rect x="960" y="20" width="12" height="20" fill="#fcd34d"/>
  <rect x="972" y="20" width="12" height="20" fill="#fcd34d"/>
  <rect x="1044" y="20" width="12" height="20" fill="#fcd34d"/>
  <rect x="1056" y="20" width="12" height="20" fill="#fcd34d"/>
  <rect x="0" y="40" width="12" height="20" fill="#fbbf24"/>
  <rect x="12" y="40" width="12" height="20" fill="#fbbf24"/>
  <rect x="72" y="40" width="12" height="20" fill="#fbbf24"/>
  <rect x="84" y="40" width="12" height="20" fill="#fbbf24"/>
  <rect x="108" y="40" width="12" height="20" fill="#fbbf24"/>
  <rect x="120" y="40" width="12" height="20" fill="#fbbf24"/>
  <rect x="132" y="40" width="12" height="20" fill="#fbbf24"/>
  <rect x="144" y="40" width="12" height="20" fill="#fbbf24"/>
  <rect x="156" y="40" width="12" height="20" fill="#fbbf24"/>
  <rect x="168" y="40" width="12" height="20" fill="#fbbf24"/>
  <rect x="204" y="40" width="12" height="20" fill="#fbbf24"/>
  <rect x="216" y="40" width="12" height="20" fill="#fbbf24"/>
  <rect x="228" y="40" width="12" height="20" fill="#fbbf24"/>
  <rect x="240" y="40" width="12" height="20" fill="#fbbf24"/>
  <rect x="252" y="40" width="12" height="20" fill="#fbbf24"/>
  <rect x="300" y="40" width="12" height="20" fill="#fbbf24"/>
  <rect x="312" y="40" width="12" height="20" fill="#fbbf24"/>
  <rect x="336" y="40" width="12" height="20" fill="#fbbf24"/>
  <rect x="348" y="40" width="12" height="20" fill="#fbbf24"/>
  <rect x="384" y="40" width="12" height="20" fill="#fbbf24"/>
  <rect x="396" y="40" width="12" height="20" fill="#fbbf24"/>
  <rect x="420" y="40" width="12" height="20" fill="#fbbf24"/>
  <rect x="432" y="40" width="12" height="20" fill="#fbbf24"/>
  <rect x="444" y="40" width="12" height="20" fill="#fbbf24"/>
  <rect x="456" y="40" width="12" height="20" fill="#fbbf24"/>
  <rect x="468" y="40" width="12" height="20" fill="#fbbf24"/>
  <rect x="516" y="40" width="12" height="20" fill="#fbbf24"/>
  <rect x="528" y="40" width="12" height="20" fill="#fbbf24"/>
  <rect x="552" y="40" width="12" height="20" fill="#fbbf24"/>
  <rect x="564" y="40" width="12" height="20" fill="#fbbf24"/>
  <rect x="588" y="40" width="12" height="20" fill="#fbbf24"/>
  <rect x="600" y="40" width="12" height="20" fill="#fbbf24"/>
  <rect x="636" y="40" width="12" height="20" fill="#fbbf24"/>
  <rect x="648" y="40" width="12" height="20" fill="#fbbf24"/>
  <rect x="672" y="40" width="12" height="20" fill="#fbbf24"/>
  <rect x="684" y="40" width="12" height="20" fill="#fbbf24"/>
  <rect x="768" y="40" width="12" height="20" fill="#fbbf24"/>
  <rect x="780" y="40" width="12" height="20" fill="#fbbf24"/>
  <rect x="864" y="40" width="12" height="20" fill="#fbbf24"/>
  <rect x="876" y="40" width="12" height="20" fill="#fbbf24"/>
  <rect x="888" y="40" width="12" height="20" fill="#fbbf24"/>
  <rect x="900" y="40" width="12" height="20" fill="#fbbf24"/>
  <rect x="912" y="40" width="12" height="20" fill="#fbbf24"/>
  <rect x="924" y="40" width="12" height="20" fill="#fbbf24"/>
  <rect x="936" y="40" width="12" height="20" fill="#fbbf24"/>
  <rect x="960" y="40" width="12" height="20" fill="#fbbf24"/>
  <rect x="972" y="40" width="12" height="20" fill="#fbbf24"/>
  <rect x="1008" y="40" width="12" height="20" fill="#fbbf24"/>
  <rect x="1044" y="40" width="12" height="20" fill="#fbbf24"/>
  <rect x="1056" y="40" width="12" height="20" fill="#fbbf24"/>
  <rect x="0" y="60" width="12" height="20" fill="#f59e0b"/>
  <rect x="12" y="60" width="12" height="20" fill="#f59e0b"/>
  <rect x="72" y="60" width="12" height="20" fill="#f59e0b"/>
  <rect x="84" y="60" width="12" height="20" fill="#f59e0b"/>
  <rect x="108" y="60" width="12" height="20" fill="#f59e0b"/>
  <rect x="120" y="60" width="12" height="20" fill="#f59e0b"/>
  <rect x="204" y="60" width="12" height="20" fill="#f59e0b"/>
  <rect x="216" y="60" width="12" height="20" fill="#f59e0b"/>
  <rect x="300" y="60" width="12" height="20" fill="#f59e0b"/>
  <rect x="312" y="60" width="12" height="20" fill="#f59e0b"/>
  <rect x="348" y="60" width="12" height="20" fill="#f59e0b"/>
  <rect x="360" y="60" width="12" height="20" fill="#f59e0b"/>
  <rect x="384" y="60" width="12" height="20" fill="#f59e0b"/>
  <rect x="396" y="60" width="12" height="20" fill="#f59e0b"/>
  <rect x="420" y="60" width="12" height="20" fill="#f59e0b"/>
  <rect x="432" y="60" width="12" height="20" fill="#f59e0b"/>
  <rect x="516" y="60" width="12" height="20" fill="#f59e0b"/>
  <rect x="528" y="60" width="12" height="20" fill="#f59e0b"/>
  <rect x="552" y="60" width="12" height="20" fill="#f59e0b"/>
  <rect x="564" y="60" width="12" height="20" fill="#f59e0b"/>
  <rect x="600" y="60" width="12" height="20" fill="#f59e0b"/>
  <rect x="612" y="60" width="12" height="20" fill="#f59e0b"/>
  <rect x="636" y="60" width="12" height="20" fill="#f59e0b"/>
  <rect x="648" y="60" width="12" height="20" fill="#f59e0b"/>
  <rect x="672" y="60" width="12" height="20" fill="#f59e0b"/>
  <rect x="684" y="60" width="12" height="20" fill="#f59e0b"/>
  <rect x="768" y="60" width="12" height="20" fill="#f59e0b"/>
  <rect x="780" y="60" width="12" height="20" fill="#f59e0b"/>
  <rect x="864" y="60" width="12" height="20" fill="#f59e0b"/>
  <rect x="876" y="60" width="12" height="20" fill="#f59e0b"/>
  <rect x="924" y="60" width="12" height="20" fill="#f59e0b"/>
  <rect x="936" y="60" width="12" height="20" fill="#f59e0b"/>
  <rect x="960" y="60" width="12" height="20" fill="#f59e0b"/>
  <rect x="972" y="60" width="12" height="20" fill="#f59e0b"/>
  <rect x="996" y="60" width="12" height="20" fill="#f59e0b"/>
  <rect x="1008" y="60" width="12" height="20" fill="#f59e0b"/>
  <rect x="1020" y="60" width="12" height="20" fill="#f59e0b"/>
  <rect x="1044" y="60" width="12" height="20" fill="#f59e0b"/>
  <rect x="1056" y="60" width="12" height="20" fill="#f59e0b"/>
  <rect x="12" y="80" width="12" height="20" fill="#d97706"/>
  <rect x="24" y="80" width="12" height="20" fill="#d97706"/>
  <rect x="36" y="80" width="12" height="20" fill="#d97706"/>
  <rect x="48" y="80" width="12" height="20" fill="#d97706"/>
  <rect x="60" y="80" width="12" height="20" fill="#d97706"/>
  <rect x="72" y="80" width="12" height="20" fill="#d97706"/>
  <rect x="108" y="80" width="12" height="20" fill="#d97706"/>
  <rect x="120" y="80" width="12" height="20" fill="#d97706"/>
  <rect x="204" y="80" width="12" height="20" fill="#d97706"/>
  <rect x="216" y="80" width="12" height="20" fill="#d97706"/>
  <rect x="228" y="80" width="12" height="20" fill="#d97706"/>
  <rect x="240" y="80" width="12" height="20" fill="#d97706"/>
  <rect x="252" y="80" width="12" height="20" fill="#d97706"/>
  <rect x="264" y="80" width="12" height="20" fill="#d97706"/>
  <rect x="276" y="80" width="12" height="20" fill="#d97706"/>
  <rect x="300" y="80" width="12" height="20" fill="#d97706"/>
  <rect x="312" y="80" width="12" height="20" fill="#d97706"/>
  <rect x="360" y="80" width="12" height="20" fill="#d97706"/>
  <rect x="372" y="80" width="12" height="20" fill="#d97706"/>
  <rect x="384" y="80" width="12" height="20" fill="#d97706"/>
  <rect x="396" y="80" width="12" height="20" fill="#d97706"/>
  <rect x="420" y="80" width="12" height="20" fill="#d97706"/>
  <rect x="432" y="80" width="12" height="20" fill="#d97706"/>
  <rect x="516" y="80" width="12" height="20" fill="#d97706"/>
  <rect x="528" y="80" width="12" height="20" fill="#d97706"/>
  <rect x="552" y="80" width="12" height="20" fill="#d97706"/>
  <rect x="564" y="80" width="12" height="20" fill="#d97706"/>
  <rect x="612" y="80" width="12" height="20" fill="#d97706"/>
  <rect x="624" y="80" width="12" height="20" fill="#d97706"/>
  <rect x="636" y="80" width="12" height="20" fill="#d97706"/>
  <rect x="648" y="80" width="12" height="20" fill="#d97706"/>
  <rect x="684" y="80" width="12" height="20" fill="#d97706"/>
  <rect x="696" y="80" width="12" height="20" fill="#d97706"/>
  <rect x="708" y="80" width="12" height="20" fill="#d97706"/>
  <rect x="720" y="80" width="12" height="20" fill="#d97706"/>
  <rect x="732" y="80" width="12" height="20" fill="#d97706"/>
  <rect x="744" y="80" width="12" height="20" fill="#d97706"/>
  <rect x="768" y="80" width="12" height="20" fill="#d97706"/>
  <rect x="780" y="80" width="12" height="20" fill="#d97706"/>
  <rect x="792" y="80" width="12" height="20" fill="#d97706"/>
  <rect x="804" y="80" width="12" height="20" fill="#d97706"/>
  <rect x="816" y="80" width="12" height="20" fill="#d97706"/>
  <rect x="828" y="80" width="12" height="20" fill="#d97706"/>
  <rect x="840" y="80" width="12" height="20" fill="#d97706"/>
  <rect x="864" y="80" width="12" height="20" fill="#d97706"/>
  <rect x="876" y="80" width="12" height="20" fill="#d97706"/>
  <rect x="924" y="80" width="12" height="20" fill="#d97706"/>
  <rect x="936" y="80" width="12" height="20" fill="#d97706"/>
  <rect x="972" y="80" width="12" height="20" fill="#d97706"/>
  <rect x="984" y="80" width="12" height="20" fill="#d97706"/>
  <rect x="996" y="80" width="12" height="20" fill="#d97706"/>
  <rect x="1020" y="80" width="12" height="20" fill="#d97706"/>
  <rect x="1032" y="80" width="12" height="20" fill="#d97706"/>
  <rect x="1044" y="80" width="12" height="20" fill="#d97706"/>
</svg>
